<svg width="259" height="287" viewBox="0 0 259 287" fill="none" xmlns="http://www.w3.org/2000/svg">
<mask id="path-1-inside-1_201_2240" fill="white">
<path fill-rule="evenodd" clip-rule="evenodd" d="M47.7599 214.111H47.7599V286.588H161.697V214.111L98.8591 214.111L90.2275 199.027H47.7599V214.111Z"/>
</mask>
<path fill-rule="evenodd" clip-rule="evenodd" d="M47.7599 214.111H47.7599V286.588H161.697V214.111L98.8591 214.111L90.2275 199.027H47.7599V214.111Z" fill="url(#paint0_linear_201_2240)"/>
<path d="M47.7599 214.111H48.7599V213.111H47.7599V214.111ZM47.7599 214.111H46.7599V215.111H47.7599V214.111ZM47.7599 286.588H46.7599V287.588H47.7599V286.588ZM161.697 286.588V287.588H162.697V286.588H161.697ZM161.697 214.111H162.697V213.111H161.697V214.111ZM98.8591 214.111L97.9912 214.607L98.2792 215.111H98.8591V214.111ZM90.2275 199.027L91.0955 198.53L90.8074 198.027H90.2275V199.027ZM47.7599 199.027V198.027H46.7599V199.027H47.7599ZM47.7599 213.111H47.7599V215.111H47.7599V213.111ZM48.7599 286.588V214.111H46.7599V286.588H48.7599ZM161.697 285.588H47.7599V287.588H161.697V285.588ZM160.697 214.111V286.588H162.697V214.111H160.697ZM98.8591 215.111L161.697 215.111V213.111L98.8591 213.111V215.111ZM89.3596 199.523L97.9912 214.607L99.7271 213.614L91.0955 198.53L89.3596 199.523ZM47.7599 200.027H90.2275V198.027H47.7599V200.027ZM48.7599 214.111V199.027H46.7599V214.111H48.7599Z" fill="white" mask="url(#path-1-inside-1_201_2240)"/>
<path d="M94.2161 121.733L56.7744 134.263L74.7538 187.987L115.524 185.402L149.637 162.927L131.658 109.203L94.2161 121.733Z" fill="url(#paint1_linear_201_2240)" stroke="white" stroke-width="0.75" stroke-miterlimit="10"/>
<path d="M90.8883 111.789L56.7748 134.264L97.5413 131.668L131.658 109.203L90.8883 111.789Z" fill="url(#paint2_linear_201_2240)" stroke="white" stroke-width="0.75" stroke-linejoin="round"/>
<path d="M97.5414 131.668L115.524 185.402" stroke="white" stroke-width="0.75" stroke-miterlimit="10"/>
<path d="M170.653 190.039L131.35 172.538L105.008 231.697L139.433 260.15L183.613 266.698L209.955 207.54L170.653 190.039Z" fill="url(#paint3_linear_201_2240)" stroke="white" stroke-width="0.75" stroke-miterlimit="10"/>
<path d="M175.522 179.103L131.35 172.539L165.776 200.992L209.955 207.54L175.522 179.103Z" fill="url(#paint4_linear_201_2240)" stroke="white" stroke-width="0.75" stroke-linejoin="round"/>
<path d="M165.776 200.992L139.433 260.15" stroke="white" stroke-width="0.75" stroke-miterlimit="10"/>
<path d="M189.263 114.43L160.494 94.7863L138.657 131.048L162.34 159.165L196.224 170.316L218.061 134.055L189.263 114.43Z" fill="url(#paint5_linear_201_2240)" stroke="white" stroke-width="0.75" stroke-miterlimit="10"/>
<path d="M194.379 105.939L160.494 94.7874L184.177 122.904L218.061 134.056L194.379 105.939Z" fill="url(#paint6_linear_201_2240)" stroke="white" stroke-width="0.75" stroke-linejoin="round"/>
<path d="M184.177 122.904L162.341 159.166" stroke="white" stroke-width="0.75" stroke-miterlimit="10"/>
<path d="M82.1281 58.2216L60.4626 46.3219L46.1548 76.8257L64.4671 95.85L89.4858 100.625L103.782 70.0921L82.1281 58.2216Z" fill="url(#paint7_linear_201_2240)" stroke="white" stroke-width="0.75" stroke-miterlimit="10"/>
<path d="M85.4627 51.0906L60.4627 46.3217L78.775 65.346L103.782 70.0919L85.4627 51.0906Z" fill="url(#paint8_linear_201_2240)" stroke="white" stroke-width="0.75" stroke-linejoin="round"/>
<path d="M78.7752 65.3466L64.4674 95.8503" stroke="white" stroke-width="0.75" stroke-miterlimit="10"/>
<path d="M216.101 59.3271L192.596 58.9741L191.342 91.6947L214.55 99.6985L238.342 92.3954L239.595 59.6748L216.101 59.3271Z" fill="url(#paint9_linear_201_2240)" stroke="white" stroke-width="0.75" stroke-miterlimit="10"/>
<path d="M216.387 51.6711L192.596 58.9741L215.804 66.9779L239.595 59.6748L216.387 51.6711Z" fill="url(#paint10_linear_201_2240)" stroke="white" stroke-width="0.75" stroke-linejoin="round"/>
<path d="M215.805 66.9783L214.551 99.6989" stroke="white" stroke-width="0.75" stroke-miterlimit="10"/>
<mask id="path-18-inside-2_201_2240" fill="white">
<path d="M74.6519 228.827H188.589L160.968 286.588H47.0306L74.6519 228.827Z"/>
</mask>
<path d="M74.6519 228.827H188.589L160.968 286.588H47.0306L74.6519 228.827Z" fill="url(#paint11_linear_201_2240)"/>
<path d="M74.6519 228.827V227.827H74.0216L73.7497 228.395L74.6519 228.827ZM188.589 228.827L189.492 229.258L190.176 227.827H188.589V228.827ZM160.968 286.588V287.588H161.598L161.87 287.02L160.968 286.588ZM47.0306 286.588L46.1285 286.157L45.444 287.588H47.0306V286.588ZM74.6519 229.827H188.589V227.827H74.6519V229.827ZM187.687 228.395L160.066 286.157L161.87 287.02L189.492 229.258L187.687 228.395ZM160.968 285.588H47.0306V287.588H160.968V285.588ZM47.9328 287.02L75.554 229.258L73.7497 228.395L46.1285 286.157L47.9328 287.02Z" fill="white" mask="url(#path-18-inside-2_201_2240)"/>
<defs>
<linearGradient id="paint0_linear_201_2240" x1="130.441" y1="299.723" x2="73.3057" y2="197.49" gradientUnits="userSpaceOnUse">
<stop stop-color="#2F2B7E"/>
<stop offset="0.505208" stop-color="#512BDA"/>
<stop offset="1" stop-color="#07F8E6"/>
</linearGradient>
<linearGradient id="paint1_linear_201_2240" x1="115.523" y1="185.402" x2="94.2154" y2="121.733" gradientUnits="userSpaceOnUse">
<stop offset="0.01" stop-color="#FF12AE"/>
<stop offset="1" stop-color="#F08F65"/>
</linearGradient>
<linearGradient id="paint2_linear_201_2240" x1="97.5407" y1="131.669" x2="90.8877" y2="111.789" gradientUnits="userSpaceOnUse">
<stop offset="0.01" stop-color="#FF12AE"/>
<stop offset="1" stop-color="#F08F65"/>
</linearGradient>
<linearGradient id="paint3_linear_201_2240" x1="139.433" y1="260.15" x2="170.652" y2="190.039" gradientUnits="userSpaceOnUse">
<stop offset="0.01" stop-color="#07F8E6"/>
<stop offset="1" stop-color="#512BDA"/>
</linearGradient>
<linearGradient id="paint4_linear_201_2240" x1="165.775" y1="200.991" x2="175.522" y2="179.103" gradientUnits="userSpaceOnUse">
<stop offset="0.01" stop-color="#07F8E6"/>
<stop offset="1" stop-color="#512BDA"/>
</linearGradient>
<linearGradient id="paint5_linear_201_2240" x1="170.078" y1="163.268" x2="186.639" y2="101.834" gradientUnits="userSpaceOnUse">
<stop offset="0.01" stop-color="#7744FF"/>
<stop offset="1" stop-color="#230494"/>
</linearGradient>
<linearGradient id="paint6_linear_201_2240" x1="186.293" y1="125.492" x2="192.262" y2="103.351" gradientUnits="userSpaceOnUse">
<stop offset="0.01" stop-color="#7744FF"/>
<stop offset="1" stop-color="#230494"/>
</linearGradient>
<linearGradient id="paint7_linear_201_2240" x1="67.4435" y1="96.8091" x2="81.5256" y2="53.1094" gradientUnits="userSpaceOnUse">
<stop offset="0.01" stop-color="#07F8E6"/>
<stop offset="1" stop-color="#512BDA"/>
</linearGradient>
<linearGradient id="paint8_linear_201_2240" x1="79.7231" y1="65.6516" x2="84.5138" y2="50.7849" gradientUnits="userSpaceOnUse">
<stop offset="0.01" stop-color="#07F8E6"/>
<stop offset="1" stop-color="#512BDA"/>
</linearGradient>
<linearGradient id="paint9_linear_201_2240" x1="208.007" y1="99.2097" x2="228.161" y2="54.5184" gradientUnits="userSpaceOnUse">
<stop offset="0.01" stop-color="#EBBF4F"/>
<stop offset="1" stop-color="#FF008A"/>
</linearGradient>
<linearGradient id="paint10_linear_201_2240" x1="213.252" y1="68.2891" x2="220.932" y2="51.2585" gradientUnits="userSpaceOnUse">
<stop offset="0.01" stop-color="#EBBF4F"/>
<stop offset="1" stop-color="#FF008A"/>
</linearGradient>
<linearGradient id="paint11_linear_201_2240" x1="60.4172" y1="257.708" x2="173.505" y2="257.708" gradientUnits="userSpaceOnUse">
<stop stop-color="#FF008A"/>
<stop offset="1" stop-color="#EF8E65"/>
</linearGradient>
</defs>
</svg>
