<svg width="1440" height="946" viewBox="0 0 1440 946" fill="none" xmlns="http://www.w3.org/2000/svg">
<g opacity="0.3">
<path d="M2044.61 210.938L-937.993 210.938" stroke="white" stroke-width="0.5"/>
<path d="M2044.61 163.364L-937.993 163.364" stroke="white" stroke-width="0.5"/>
<path d="M2044.61 115.79L-937.993 115.79" stroke="white" stroke-width="0.5"/>
<path d="M2044.61 68.2161L-937.993 68.2162" stroke="white" stroke-width="0.5"/>
<path d="M2044.61 20.2161L-937.993 20.2162" stroke="white" stroke-width="0.5"/>
<path d="M2044.61 401.233L-937.999 401.233" stroke="white" stroke-width="0.5"/>
<path d="M2044.61 353.659L-937.999 353.659" stroke="white" stroke-width="0.5"/>
<path d="M2044.61 306.085L-937.993 306.085" stroke="white" stroke-width="0.5"/>
<path d="M2044.61 258.511L-937.993 258.511" stroke="white" stroke-width="0.5"/>
<path d="M2044.61 496.38L-937.999 496.38" stroke="white" stroke-width="0.5"/>
<path d="M2044.61 448.806L-937.999 448.806" stroke="white" stroke-width="0.5"/>
<path d="M2044.61 639.101L-937.996 639.101" stroke="white" stroke-width="0.5"/>
<path d="M2044.61 686.675L-937.997 686.675" stroke="white" stroke-width="0.5"/>
<path d="M2044.61 734.249L-937.997 734.249" stroke="white" stroke-width="0.5"/>
<path d="M2044.6 591.527L-938 591.528" stroke="white" stroke-width="0.5"/>
<path d="M2044.61 826.269L-937.996 826.269" stroke="white" stroke-width="0.5"/>
<path d="M2044.61 873.842L-937.998 873.842" stroke="white" stroke-width="0.5"/>
<path d="M2044.61 921.416L-937.998 921.416" stroke="white" stroke-width="0.5"/>
<path d="M2044.6 778.695L-938 778.695" stroke="white" stroke-width="0.5"/>
<path d="M2044.61 543.954L-937.999 543.954" stroke="white" stroke-width="0.5"/>
<path d="M181.045 946L181.045 0.147878" stroke="white" stroke-width="0.5"/>
<path d="M227.671 946L227.671 0.147878" stroke="white" stroke-width="0.5"/>
<path d="M41.1648 946L41.1647 0.147878" stroke="white" stroke-width="0.5"/>
<path d="M87.7917 945.999L87.7917 0.146413" stroke="white" stroke-width="0.5"/>
<path d="M134.418 945.999L134.418 0.146413" stroke="white" stroke-width="0.5"/>
<path d="M274.298 945.999L274.298 0.146413" stroke="white" stroke-width="0.5"/>
<path d="M320.925 945.999L320.925 0.146413" stroke="white" stroke-width="0.5"/>
<path d="M367.552 945.999L367.552 0.146413" stroke="white" stroke-width="0.5"/>
<path d="M414.179 945.999L414.179 0.146413" stroke="white" stroke-width="0.5"/>
<path d="M460.806 946L460.806 0.147878" stroke="white" stroke-width="0.5"/>
<path d="M647.313 946L647.313 0.147878" stroke="white" stroke-width="0.5"/>
<path d="M693.94 946L693.94 0.147878" stroke="white" stroke-width="0.5"/>
<path d="M507.433 946L507.433 0.147878" stroke="white" stroke-width="0.5"/>
<path d="M554.059 945.999L554.059 0.146413" stroke="white" stroke-width="0.5"/>
<path d="M600.686 945.999L600.686 0.146413" stroke="white" stroke-width="0.5"/>
<path d="M740.567 945.999L740.567 0.146413" stroke="white" stroke-width="0.5"/>
<path d="M787.194 945.999L787.194 0.146413" stroke="white" stroke-width="0.5"/>
<path d="M833.82 945.999L833.82 0.146413" stroke="white" stroke-width="0.5"/>
<path d="M880.447 945.999L880.447 0.146413" stroke="white" stroke-width="0.5"/>
<path d="M927.074 946L927.074 0.147878" stroke="white" stroke-width="0.5"/>
<path d="M1113.58 946L1113.58 0.147878" stroke="white" stroke-width="0.5"/>
<path d="M1160.21 946L1160.21 0.147878" stroke="white" stroke-width="0.5"/>
<path d="M973.701 946L973.701 0.147878" stroke="white" stroke-width="0.5"/>
<path d="M1020.33 945.999L1020.33 0.146413" stroke="white" stroke-width="0.5"/>
<path d="M1066.95 945.999L1066.95 0.146413" stroke="white" stroke-width="0.5"/>
<path d="M1206.83 945.999L1206.83 0.146413" stroke="white" stroke-width="0.5"/>
<path d="M1253.46 945.999L1253.46 0.146413" stroke="white" stroke-width="0.5"/>
<path d="M1300.09 945.999L1300.09 0.146413" stroke="white" stroke-width="0.5"/>
<path d="M1346.72 945.999L1346.72 0.146413" stroke="white" stroke-width="0.5"/>
<path d="M1393.34 946L1393.34 0.147878" stroke="white" stroke-width="0.5"/>
<path d="M1439.97 946L1439.97 0.147878" stroke="white" stroke-width="0.5"/>
</g>
</svg>
