<svg width="180" height="198" viewBox="0 0 180 198" fill="none" xmlns="http://www.w3.org/2000/svg">
<path d="M178.706 13.075L29.5874 13.075L29.5874 153.085L178.706 153.085L178.706 13.075Z" fill="url(#paint0_linear_263_2)" stroke="white" stroke-width="0.75" stroke-miterlimit="10"/>
<path d="M33.5653 0.623291L174.712 0.623291C176.905 0.623291 178.69 2.32527 178.69 4.41543L178.69 13.0746L29.5872 13.0746L29.5872 4.41543C29.5872 2.32527 31.3726 0.623291 33.5653 0.623291Z" fill="#512AE6" stroke="white" stroke-width="0.75" stroke-miterlimit="10"/>
<path d="M171.689 8.99896C172.935 8.99896 173.945 8.03643 173.945 6.84909C173.945 5.66175 172.935 4.69922 171.689 4.69922C170.444 4.69922 169.434 5.66175 169.434 6.84909C169.434 8.03643 170.444 8.99896 171.689 8.99896Z" fill="#53FFFF"/>
<path d="M162.48 8.99896C163.726 8.99896 164.736 8.03643 164.736 6.84909C164.736 5.66175 163.726 4.69922 162.48 4.69922C161.235 4.69922 160.225 5.66175 160.225 6.84909C160.225 8.03643 161.235 8.99896 162.48 8.99896Z" fill="#FF12AE"/>
<path d="M153.255 8.99896C154.501 8.99896 155.51 8.03643 155.51 6.84909C155.51 5.66175 154.501 4.69922 153.255 4.69922C152.01 4.69922 151 5.66175 151 6.84909C151 8.03643 152.01 8.99896 153.255 8.99896Z" fill="white"/>
<path d="M164.277 34.9001L15.1587 34.9001L15.1587 174.91L164.277 174.91L164.277 34.9001Z" fill="url(#paint1_linear_263_2)" stroke="white" stroke-width="0.75" stroke-miterlimit="10"/>
<path d="M19.1369 22.449L160.284 22.449C162.476 22.449 164.262 24.151 164.262 26.2411L164.262 34.9003L15.1587 34.9003L15.1587 26.2411C15.1587 24.151 16.9442 22.449 19.1369 22.449Z" fill="#512AE6" stroke="white" stroke-width="0.75" stroke-miterlimit="10"/>
<path d="M157.261 30.8244C158.507 30.8244 159.516 29.8619 159.516 28.6745C159.516 27.4872 158.507 26.5247 157.261 26.5247C156.015 26.5247 155.006 27.4872 155.006 28.6745C155.006 29.8619 156.015 30.8244 157.261 30.8244Z" fill="#53FFFF"/>
<path d="M148.052 30.8244C149.297 30.8244 150.307 29.8619 150.307 28.6745C150.307 27.4872 149.297 26.5247 148.052 26.5247C146.806 26.5247 145.796 27.4872 145.796 28.6745C145.796 29.8619 146.806 30.8244 148.052 30.8244Z" fill="#FF12AE"/>
<path d="M138.827 30.8244C140.072 30.8244 141.082 29.8619 141.082 28.6745C141.082 27.4872 140.072 26.5247 138.827 26.5247C137.581 26.5247 136.571 27.4872 136.571 28.6745C136.571 29.8619 137.581 30.8244 138.827 30.8244Z" fill="white"/>
<path d="M149.849 56.7268L0.730591 56.7268L0.730591 196.737L149.849 196.737L149.849 56.7268Z" fill="url(#paint2_linear_263_2)" stroke="white" stroke-width="0.75" stroke-miterlimit="10"/>
<path d="M4.70876 44.2754L145.856 44.2754C148.048 44.2754 149.834 45.9774 149.834 48.0675L149.834 56.7267L0.730591 56.7267L0.730591 48.0675C0.730591 45.9774 2.51607 44.2754 4.70876 44.2754Z" fill="#512AE6" stroke="white" stroke-width="0.75" stroke-miterlimit="10"/>
<path d="M142.833 52.6515C144.079 52.6515 145.089 51.689 145.089 50.5017C145.089 49.3143 144.079 48.3518 142.833 48.3518C141.588 48.3518 140.578 49.3143 140.578 50.5017C140.578 51.689 141.588 52.6515 142.833 52.6515Z" fill="#53FFFF"/>
<path d="M133.624 52.6515C134.869 52.6515 135.879 51.689 135.879 50.5017C135.879 49.3143 134.869 48.3518 133.624 48.3518C132.378 48.3518 131.369 49.3143 131.369 50.5017C131.369 51.689 132.378 52.6515 133.624 52.6515Z" fill="#FF12AE"/>
<path d="M124.399 52.6515C125.645 52.6515 126.654 51.689 126.654 50.5017C126.654 49.3143 125.645 48.3518 124.399 48.3518C123.154 48.3518 122.144 49.3143 122.144 50.5017C122.144 51.689 123.154 52.6515 124.399 52.6515Z" fill="white"/>
<defs>
<linearGradient id="paint0_linear_263_2" x1="104.146" y1="153.085" x2="104.146" y2="13.075" gradientUnits="userSpaceOnUse">
<stop offset="0.01" stop-color="#07F8E6"/>
<stop offset="0.505208" stop-color="#512BDA"/>
<stop offset="1" stop-color="#2F2B7E"/>
</linearGradient>
<linearGradient id="paint1_linear_263_2" x1="89.7168" y1="174.91" x2="89.7168" y2="34.9001" gradientUnits="userSpaceOnUse">
<stop offset="0.01" stop-color="#07F8E6"/>
<stop offset="0.505208" stop-color="#512BDA"/>
<stop offset="1" stop-color="#2F2B7E"/>
</linearGradient>
<linearGradient id="paint2_linear_263_2" x1="75.2887" y1="196.737" x2="75.2887" y2="56.7268" gradientUnits="userSpaceOnUse">
<stop offset="0.01" stop-color="#07F8E6"/>
<stop offset="0.505208" stop-color="#512BDA"/>
<stop offset="1" stop-color="#2F2B7E"/>
</linearGradient>
</defs>
</svg>
